# xmcd
#
# Track frame offsets:
#	150
#	11512
#	22424
#	32294
#	43257
#	56015
#	67813
#	78167
#	88526
#	98574
#	109236
#	120631
#	130127
#	141713
#	151763
#	164335
#	173469
#	185164
#	193945
#	205652
#	215874
#	226866
#	238739
#	248338
#	258795
#	270982
#
# Disc length: 3774 seconds
#
# Revision: 1
# Processed by: cddbd v1.5.2PL0 Copyright (c) Steve Scherf et al.
# Submitted via: audiograbber 1.83.01
#
DISCID=5e0ebc1a
DTITLE=Domino Fats - Out of New Orleans - CD2
DYEAR=1993
DGENRE=R&B
TTITLE0=Long Lonesome Journey (Master)1958
TTITLE1=Long Lonesome Journey (Alternate) 1993
TTITLE2=Poor Poor me (Master) 1952
TTITLE3=Poor Poor me (Alternate) 1993 
TTITLE4=Trust in me 1952
TTITLE5=Cheatin 1953
TTITLE6=Mardi Gras in New Orleans 1953
TTITLE7=I Guessi'll be on my Way 1963
TTITLE8=Nobody Loves me 1953
TTITLE9=Dreaming (Instrumental) 1952
TTITLE10=Going to the River 1953
TTITLE11=I Lover her 1956
TTITLE12=Second Line Jump (Instrumental) 1956
TTITLE13=Goodbye 1956
TTITLE14=Swanee River Hop (Instrumental) 1956
TTITLE15=Rose Mary (2. Version) 1968
TTITLE16=Please don't Leave me 1953
TTITLE17=Domino Stomp (Instrumental) 1956
TTITLE18=You Said, you Love me 1953
TTITLE19=Roes Mary (1. Version) 1953
TTITLE20=Fats Domino Blues (Instrumental) 1969
TTITLE21=Ain't it Good 1959
TTITLE22=The Girl i Love 1953
TTITLE23=Don't Leave me this Way 1953
TTITLE24=Somethings Wrong 1956
TTITLE25=Fat's Frenzy (Instrumental) 1956 xxxx
EXTD=
EXTT0=
EXTT1=
EXTT2=
EXTT3=
EXTT4=
EXTT5=
EXTT6=
EXTT7=
EXTT8=
EXTT9=
EXTT10=
EXTT11=
EXTT12=
EXTT13=
EXTT14=
EXTT15=
EXTT16=
EXTT17=
EXTT18=
EXTT19=
EXTT20=
EXTT21=
EXTT22=
EXTT23=
EXTT24=
EXTT25=
PLAYORDER=
